HIERARCHY
ROOT Hips
{
	OFFSET 22.929825 -13.753626 -17.627447
	CHANNELS 6 Xposition Yposition Zposition Zrotation Yrotation Xrotation
	JOINT LHipJoint
	{
		OFFSET -15.521521 -19.041800 -45.777077
		CHANNELS 3 Zrotation Yrotation Xrotation
		JOINT LeftUpLeg
		{
			OFFSET -50.303589 -76.870850 -96.588348
			CHANNELS 3 Zrotation Yrotation Xrotation
			JOINT LeftLeg
			{
				OFFSET -90.425255 -94.760208 -96.079262
				CHANNELS 3 Zrotation Yrotation Xrotation
				JOINT LeftFoot
				{
					OFFSET -86.060707 -88.440613 -86.400139
					CHANNELS 3 Zrotation Yrotation Xrotation
					JOINT LeftToeBase
					{
						OFFSET -96.292870 -92.646103 -92.027901
						CHANNELS 3 Zrotation Yrotation Xrotation
						End Site
						{
							OFFSET 0.000000 0.000000 0.000000
						}
					}
				}
			}
		}
	}
	JOINT RHipJoint
	{
		OFFSET -92.077965 -83.991844 -73.925835
		CHANNELS 3 Zrotation Yrotation Xrotation
		JOINT RightUpLeg
		{
			OFFSET -98.971153 -99.659882 -120.625603
			CHANNELS 3 Zrotation Yrotation Xrotation
			JOINT RightLeg
			{
				OFFSET -125.948418 -144.038300 -142.567673
				CHANNELS 3 Zrotation Yrotation Xrotation
				JOINT RightFoot
				{
					OFFSET -174.489777 -187.923767 -216.238800
					CHANNELS 3 Zrotation Yrotation Xrotation
					JOINT RightToeBase
					{
						OFFSET -223.775986 -234.887817 -238.068878
						CHANNELS 3 Zrotation Yrotation Xrotation
						End Site
						{
							OFFSET 0.000000 0.000000 0.000000
						}
					}
				}
			}
		}
	}
	JOINT LowerBack
	{
		OFFSET -238.482010 -231.329056 -223.512527
		CHANNELS 3 Zrotation Yrotation Xrotation
		JOINT Spine
		{
			OFFSET -227.045593 -226.537125 -223.293655
			CHANNELS 3 Zrotation Yrotation Xrotation
			JOINT Spine1
			{
				OFFSET -222.624847 -223.601654 -226.775482
				CHANNELS 3 Zrotation Yrotation Xrotation
				JOINT Neck
				{
					OFFSET -229.783524 -219.817871 -237.602341
					CHANNELS 3 Zrotation Yrotation Xrotation
					JOINT Neck1
					{
						OFFSET -186.905334 -191.955765 -189.871170
						CHANNELS 3 Zrotation Yrotation Xrotation
						JOINT Head
						{
							OFFSET -199.748734 -174.509857 -173.784668
							CHANNELS 3 Zrotation Yrotation Xrotation
							End Site
							{
								OFFSET 0.000000 0.000000 0.000000
							}
						}
					}
				}
				JOINT LeftShoulder
				{
					OFFSET -136.853607 -150.097672 -155.035461
					CHANNELS 3 Zrotation Yrotation Xrotation
					JOINT LeftArm
					{
						OFFSET -138.660461 -147.260406 -135.910217
						CHANNELS 3 Zrotation Yrotation Xrotation
						JOINT LeftForeArm
						{
							OFFSET -139.627380 -138.719467 -134.510117
							CHANNELS 3 Zrotation Yrotation Xrotation
							JOINT LeftHand
							{
								OFFSET -126.607513 -114.752815 -115.260490
								CHANNELS 3 Zrotation Yrotation Xrotation
								JOINT LeftFingerBase
								{
									OFFSET -119.838516 -126.424797 -96.095062
									CHANNELS 3 Zrotation Yrotation Xrotation
									JOINT LeftHandIndex1
									{
										OFFSET -98.972633 -77.702721 -69.564873
										CHANNELS 3 Zrotation Yrotation Xrotation
										End Site
										{
											OFFSET 0.000000 0.000000 0.000000
										}
									}
								}
								JOINT LThumb
								{
									OFFSET -41.542225 -38.460045 -31.169638
									CHANNELS 3 Zrotation Yrotation Xrotation
									End Site
									{
										OFFSET 0.000000 0.000000 0.000000
									}
								}
							}
						}
					}
				}
				JOINT RightShoulder
				{
					OFFSET -31.942116 -31.335890 -27.500639
					CHANNELS 3 Zrotation Yrotation Xrotation
					JOINT RightArm
					{
						OFFSET -29.808094 -6.489004 -22.046558
						CHANNELS 3 Zrotation Yrotation Xrotation
						JOINT RightForeArm
						{
							OFFSET -26.020481 -21.512068 -21.144793
							CHANNELS 3 Zrotation Yrotation Xrotation
							JOINT RightHand
							{
								OFFSET -16.826923 -11.504135 -26.395952
								CHANNELS 3 Zrotation Yrotation Xrotation
								JOINT RightFingerBase
								{
									OFFSET -14.825884 -0.533951 -2.042345
									CHANNELS 3 Zrotation Yrotation Xrotation
									JOINT RightHandIndex1
									{
										OFFSET 3.181267 -1.596131 -5.737914
										CHANNELS 3 Zrotation Yrotation Xrotation
										End Site
										{
											OFFSET 0.000000 0.000000 0.000000
										}
									}
								}
								JOINT RThumb
								{
									OFFSET -5.885931 -20.136942 -6.231253
									CHANNELS 3 Zrotation Yrotation Xrotation
									End Site
									{
										OFFSET -5.930230 -13.406678 23.037994
									}
								}
							}
						}
					}
				}
			}
		}
	}
}
MOTION
Frames: 8
Frame Time: 0.008333
54.965225 11.795280 -189.266052 -12.511611 41.905384 40.011642 66.289963 50.684368 -0.184495 27.632204 -46.718582 20.100399 -6.404566 7.706001 76.646568 -6.242243 -45.975594 -81.402336 -6.857146 -15.237542 -14.102160 -108.714317 -35.722031 1.563234 60.395996 -47.361256 -134.940231 -17.221943 -27.916149 -52.406933 8.037473 -49.106529 -151.669189 -3.700691 -69.911812 196.583176 38.447990 -22.361753 2.268517 2.815780 -18.306786 43.195312 88.314224 -22.292883 -67.775024 56.146420 1.470558 5.726435 -29.260273 62.511314 235.908798 62.180344 35.077534 76.313751 70.763985 16.718801 27.789644 157.585449 254.512955 563.217834 273.910553 5.591946 56.890202 7.178658 7.919871 85.353592 76.393555 22.284595 56.760777 -7.125000 0.000000 0.000000 236.205261 137.818314 121.705353 28.534389 84.437653 13.204506 151.983185 25.836220 229.706253 20.992554 64.840607 66.388763 15.939263 8.283788 83.028038 272.808289 41.249092 95.370499 7.125000 0.000000 0.000000 -1577.203613 -1769.160156 -3249.203857
53.518181 11.726968 -188.964371 -9.925113 45.601562 37.974529 63.851566 48.534618 -3.415362 19.726805 -54.506325 12.649965 -6.271358 16.422512 114.701309 7.246566 17.433411 -23.634106 -0.699975 23.171259 112.343445 -71.411842 -18.184284 25.036837 131.550385 14.674103 -34.288963 -1.961212 -10.931198 -78.087723 -8.511738 -144.066162 -303.356323 -25.823273 -158.801590 -180.301193 -42.681557 -98.441734 -131.898132 -64.569603 -152.622910 -99.827309 -27.623571 -106.606888 -252.828598 -54.905643 -68.841393 -50.315487 -45.723366 29.198742 178.617783 32.385178 9.521264 28.255831 26.133120 -20.222250 11.887635 48.245300 85.286652 497.134705 284.789215 65.279739 125.639221 10.713053 15.472009 141.484467 85.646057 -50.820572 3.084892 -7.125000 0.000000 0.000000 69.206635 -9.203526 -97.088890 -2.688569 63.976250 7.388173 112.165894 -35.295200 73.702324 -80.675003 -11.745186 -9.568065 6.271727 -1.701651 -65.209480 -124.043510 -155.833038 -497.044067 7.125000 0.000000 0.000000 -361.113037 -802.989624 669.872192
51.268093 10.756992 -235.000488 -20.328651 35.120705 44.276669 66.073769 44.413048 -3.239274 41.293396 -30.681028 69.992828 5.730561 17.950626 120.780861 5.343359 3.470365 -56.168121 -9.689859 -47.126324 -68.089066 -118.816933 -40.321579 -4.711486 26.831827 -103.967262 -186.952698 -23.784073 -16.258575 13.809229 8.799562 -132.151779 -195.581116 -1.393281 -79.553696 11.305193 25.333858 -18.014730 3.144626 -9.765211 -51.513260 -12.747595 65.083984 -21.491270 -168.270142 -116.755646 -133.456345 -182.556396 -98.131752 -68.651466 -0.646137 -92.506775 -99.195099 -202.365768 -151.296570 -80.866608 -15.562482 -195.897827 -380.868744 -300.980255 -180.459229 -120.822906 -62.706566 -2.048067 -12.466496 -172.313843 -48.559933 -214.244522 -53.167713 -7.125000 0.000000 0.000000 -3.815011 38.307323 -115.967148 -21.461555 52.708988 4.493565 113.484619 23.538685 149.058929 -65.223610 5.517019 0.243511 9.027429 5.384100 70.188828 579.918823 256.619141 563.364868 7.125000 0.000000 0.000000 2424.217041 437.150604 2473.041260
49.829823 10.337152 -251.022446 -23.633575 26.885641 34.629192 54.350925 31.556437 -21.876429 -15.919846 -97.840927 -59.535683 -31.400436 -32.892761 -40.501549 -23.496557 -96.549606 -95.062996 -11.344156 -31.467133 16.327641 -79.243942 -20.083349 33.707302 154.782898 8.497684 3.344604 19.347527 36.971733 232.459122 63.707729 11.042808 -9.834570 21.236116 8.650151 308.191437 95.593216 54.969620 130.535767 57.665173 95.404701 167.034531 239.376816 169.056519 275.396790 311.309479 214.286667 251.812866 74.526321 333.106781 555.332397 219.627121 125.854553 156.113510 172.891525 176.988892 60.349506 189.974930 286.628082 453.427795 310.524200 132.484116 176.960617 8.849092 13.979321 212.585907 129.912643 -14.519911 81.644295 -7.125000 0.000000 0.000000 79.424294 105.530594 -67.998444 -34.033493 40.196358 -1.583927 73.447922 5.798008 116.482864 -73.783974 -3.768776 -39.333630 2.158662 -7.262990 -147.270416 -300.782806 -205.699234 -612.810547 7.125000 0.000000 0.000000 17.056681 -1040.780151 -2623.588379
53.785278 11.881166 -193.753998 -10.208710 44.730785 45.113247 69.099129 42.661827 -5.563934 24.605993 -60.824890 -3.865256 -15.437620 -8.206183 103.987671 22.132690 88.456421 101.066635 7.232957 33.651070 187.467209 -39.631695 0.379531 63.587189 254.949371 107.684189 156.751343 57.484051 72.327629 280.949829 79.439651 87.122375 54.294495 24.110985 48.715324 590.941040 134.781952 64.089928 147.573761 62.504948 92.517189 154.553009 183.607559 60.514038 77.251862 186.104156 94.345779 132.652893 15.713431 139.343369 297.589172 104.357956 56.398457 92.093391 79.650024 31.188120 23.981478 43.404953 148.715256 530.879944 358.455811 146.982208 199.783081 7.503844 13.921901 284.322906 149.348175 -38.801422 36.445889 -7.125000 0.000000 0.000000 67.490204 89.160995 64.179901 17.197298 74.707413 9.403526 118.398636 -4.971203 154.271835 -14.723256 49.395664 27.941746 10.298485 2.979352 42.708855 531.236267 235.501053 482.006744 7.125000 0.000000 0.000000 512.489624 -178.559143 856.855591
55.051456 12.755890 -157.506760 0.904974 64.300262 63.939877 88.819122 53.278431 10.375278 78.533356 0.260544 144.958542 25.957859 31.157207 217.227127 33.330021 122.114944 112.950981 7.308322 45.402626 233.109070 -26.321745 5.559121 67.562813 269.902985 129.330322 195.565231 69.016167 84.959343 323.044434 91.288315 132.773682 93.688835 19.993618 24.943884 472.561707 105.798286 37.156872 102.626556 41.205326 45.162445 109.111160 135.867340 3.351541 -44.872829 79.076057 -0.630128 8.719776 -41.486454 -6.417427 124.456970 48.305191 18.692341 35.317547 20.272381 -29.014904 9.649046 -23.751991 33.411247 335.448669 229.514969 92.221558 157.846085 4.222446 7.050920 275.908875 167.136505 57.200600 122.305267 -7.125000 0.000000 0.000000 178.502075 92.297729 37.381065 5.594637 65.305222 5.599967 84.477356 -63.821186 23.227919 -71.457787 16.180649 13.655320 8.677464 0.243130 -10.542354 237.924805 57.240261 -24.226469 7.125000 0.000000 0.000000 212.045212 -396.173920 551.154419
44.879433 9.645599 -283.378967 -25.590055 13.130408 14.006025 53.390068 35.430603 -19.812630 -24.709799 -130.738510 -110.917725 -33.614006 -28.509075 -48.506065 -55.754993 -216.690079 -175.972412 -20.756018 -37.160793 24.205589 -68.562302 -19.620817 10.980525 91.073975 -29.966759 -66.465820 6.588189 -2.628272 -10.745472 11.246332 -61.149529 -136.466721 0.857814 -67.269753 54.608246 32.798389 3.850106 49.739300 26.286726 10.331011 85.217743 129.137589 15.757559 -8.851224 123.844231 78.382431 220.574768 10.401007 9.227367 161.843475 93.873329 49.882729 80.806686 58.213715 -23.544016 22.046082 151.133011 292.780975 448.018494 345.911316 148.193695 238.664169 11.166250 18.095827 276.178131 182.663315 97.656837 148.682327 -7.125000 0.000000 0.000000 156.931564 20.202984 -136.438995 -33.562813 41.601902 -0.234176 52.343712 -53.417805 10.240891 -100.090096 -8.083397 -30.636913 1.964234 -7.033607 -122.996330 -92.459457 -193.132370 -927.370667 7.125000 0.000000 0.000000 328.925781 -996.692261 -3131.920654
51.439056 11.680988 -210.427536 -11.098632 32.940563 19.348692 57.277546 36.799484 -15.850680 -0.444431 -103.126007 -39.113811 -8.629694 26.533279 168.761093 -4.912661 20.664877 120.366463 6.087889 44.633732 270.229675 15.031004 16.418131 59.751461 260.981049 138.328186 212.478668 83.754601 94.043297 290.651550 85.149017 158.524612 138.713089 27.847836 24.487099 243.130661 63.671043 21.216616 75.674950 34.803879 18.325323 83.951805 117.304161 -17.254210 -100.907349 20.433552 3.557994 237.525787 27.251202 43.257008 194.094391 107.100739 59.035744 104.242805 80.587875 -45.867496 14.085603 102.024902 202.279556 275.480682 245.429108 73.402893 173.380554 8.192676 8.401344 64.112144 81.175293 -92.982254 7.865483 -7.125000 0.000000 0.000000 229.938675 162.126678 83.133736 -0.153641 66.052948 9.075930 116.649902 41.950939 217.608841 4.451262 66.793442 41.695660 11.933245 6.551430 89.897789 705.348511 179.728729 -63.857502 7.125000 0.000000 0.000000 1308.044189 -445.795166 -2494.978271
